<svg width="25" height="13" viewBox="0 0 25 13" fill="none" xmlns="http://www.w3.org/2000/svg">
<path d="M18.2616 0.214044C17.8555 0.198423 17.4786 0.430784 17.3127 0.80178C17.1447 1.17278 17.217 1.60626 17.4981 1.90305L20.5696 5.22249H1.23679C0.875561 5.21664 0.541664 5.40604 0.360071 5.71846C0.176526 6.02892 0.176526 6.41554 0.360071 6.72601C0.541664 7.03842 0.875561 7.22783 1.23679 7.22197H20.5696L17.4981 10.5414C17.2482 10.8031 17.1603 11.178 17.2658 11.5236C17.3712 11.8692 17.6544 12.1308 18.0058 12.2089C18.3593 12.287 18.7263 12.1679 18.9665 11.9004L24.2171 6.22223L18.9665 0.544035C18.7869 0.344869 18.5311 0.223807 18.2616 0.214044Z" fill="#DB353A"/>
</svg>
