<svg width="25" height="13" viewBox="0 0 25 13" fill="none" xmlns="http://www.w3.org/2000/svg">
<path d="M18.5213 0.801034C18.1151 0.785414 17.7383 1.01777 17.5723 1.38877C17.4044 1.75977 17.4766 2.19325 17.7578 2.49004L20.8293 5.80948H1.49644C1.1352 5.80363 0.801308 5.99303 0.619715 6.30545C0.436169 6.61591 0.436169 7.00253 0.619715 7.313C0.801308 7.62541 1.1352 7.81482 1.49644 7.80896H20.8293L17.7578 11.1284C17.5079 11.3901 17.42 11.765 17.5254 12.1106C17.6309 12.4562 17.914 12.7178 18.2655 12.7959C18.6189 12.874 18.986 12.7549 19.2262 12.4874L24.4767 6.80922L19.2262 1.13103C19.0465 0.93186 18.7907 0.810797 18.5213 0.801034Z" fill="#C2C9D1"/>
<path d="M18.5213 0.801034C18.1151 0.785414 17.7383 1.01777 17.5723 1.38877C17.4044 1.75977 17.4766 2.19325 17.7578 2.49004L20.8293 5.80948H1.49644C1.1352 5.80363 0.801308 5.99303 0.619715 6.30545C0.436169 6.61591 0.436169 7.00253 0.619715 7.313C0.801308 7.62541 1.1352 7.81482 1.49644 7.80896H20.8293L17.7578 11.1284C17.5079 11.3901 17.42 11.765 17.5254 12.1106C17.6309 12.4562 17.914 12.7178 18.2655 12.7959C18.6189 12.874 18.986 12.7549 19.2262 12.4874L24.4767 6.80922L19.2262 1.13103C19.0465 0.93186 18.7907 0.810797 18.5213 0.801034Z" fill="white" fill-opacity="0.9"/>
</svg>
