<svg width="15" height="9" viewBox="0 0 15 9" fill="none" xmlns="http://www.w3.org/2000/svg">
<path d="M14.1905 0.0440666C14.0137 0.049268 13.8472 0.122089 13.725 0.249525L7.53785 6.43669L1.35069 0.249525C1.22455 0.120789 1.0529 0.0479677 0.872154 0.0479677C0.601676 0.0479677 0.358507 0.213115 0.257078 0.464086C0.154349 0.715058 0.215466 1.00244 0.409222 1.19099L7.06712 7.84889C7.32719 8.10896 7.74851 8.10896 8.00859 7.84889L14.6665 1.19099C14.8641 1.00114 14.9266 0.708556 14.8199 0.454984C14.7146 0.201411 14.4649 0.0388651 14.1905 0.0440666Z" fill="#C2C9D1"/>
<path d="M14.1905 0.0440666C14.0137 0.049268 13.8472 0.122089 13.725 0.249525L7.53785 6.43669L1.35069 0.249525C1.22455 0.120789 1.0529 0.0479677 0.872154 0.0479677C0.601676 0.0479677 0.358507 0.213115 0.257078 0.464086C0.154349 0.715058 0.215466 1.00244 0.409222 1.19099L7.06712 7.84889C7.32719 8.10896 7.74851 8.10896 8.00859 7.84889L14.6665 1.19099C14.8641 1.00114 14.9266 0.708556 14.8199 0.454984C14.7146 0.201411 14.4649 0.0388651 14.1905 0.0440666Z" fill="white" fill-opacity="0.5"/>
</svg>
