<svg width="27" height="130" viewBox="0 0 27 130" fill="none" xmlns="http://www.w3.org/2000/svg">
<path d="M12.5446 128.894L1.3544 119.69C0.996308 119.395 0.81726 119.025 0.81726 118.655C0.81726 118.286 0.996309 117.916 1.3544 117.62C2.07057 117.029 3.1896 117.029 3.90578 117.62L12.0523 124.311L12.0523 102.724C12.0523 101.91 12.858 101.245 13.8427 101.245C14.8275 101.245 15.6332 101.91 15.6332 102.724L15.6332 124.311L23.7796 117.62C24.4958 117.029 25.6149 117.029 26.331 117.62C27.0472 118.212 27.0472 119.136 26.331 119.727L15.1408 128.931C14.3798 129.486 13.2161 129.486 12.5446 128.894Z" fill="#DB353A"/>
<rect x="16" width="126" height="3.99999" rx="2" transform="rotate(90 16 0)" fill="#DB353A"/>
</svg>
