<svg width="43" height="50" viewBox="0 0 43 50" fill="none" xmlns="http://www.w3.org/2000/svg">
<path d="M4.47273 0C4.17618 2.96507e-05 3.89178 0.117847 3.68209 0.327541C3.47239 0.537234 3.35458 0.821631 3.35455 1.11818V6.70909C1.51517 6.70909 0 8.22426 0 10.0636V49.2H1.11818H42.4909V10.0636C42.4909 8.22426 40.9757 6.70909 39.1364 6.70909V1.11818C39.1363 0.821631 39.0185 0.537234 38.8088 0.327541C38.5991 0.117847 38.3147 2.96507e-05 38.0182 0H4.47273ZM5.59091 2.23636H10.0636V6.70909H5.59091V2.23636ZM12.3 2.23636H16.7727V6.70909H12.3V2.23636ZM19.0091 2.23636H23.4818V6.70909H19.0091V2.23636ZM25.7182 2.23636H30.1909V6.70909H25.7182V2.23636ZM32.4273 2.23636H36.9V6.70909H32.4273V2.23636ZM3.35455 8.94545H39.1364C39.7682 8.94545 40.2545 9.43183 40.2545 10.0636V46.9636H35.7818V35.7818H23.4818V36.9V46.9636H2.23636V10.0636C2.23636 9.43183 2.72274 8.94545 3.35455 8.94545ZM6.70909 13.4182V14.5364V21.2455H19.0091V13.4182H6.70909ZM23.4818 13.4182V14.5364V21.2455H35.7818V13.4182H23.4818ZM8.94545 15.6545H16.7727V19.0091H8.94545V15.6545ZM25.7182 15.6545H33.5455V19.0091H25.7182V15.6545ZM6.70909 24.6V25.7182V32.4273H19.0091V24.6H6.70909ZM23.4818 24.6V25.7182V32.4273H35.7818V24.6H23.4818ZM8.94545 26.8364H16.7727V30.1909H8.94545V26.8364ZM25.7182 26.8364H33.5455V30.1909H25.7182V26.8364ZM6.70909 35.7818V36.9V43.6091H19.0091V35.7818H6.70909ZM8.94545 38.0182H16.7727V41.3727H8.94545V38.0182ZM25.7182 38.0182H33.5455V46.9636H25.7182V38.0182Z" fill="#DB353A"/>
</svg>
