<svg width="25" height="25" viewBox="0 0 25 25" fill="none" xmlns="http://www.w3.org/2000/svg">
<path d="M3.40908 0.000319673C3.11832 0.000319673 2.82724 0.111077 2.60566 0.33323L0.332986 2.6059C-0.111321 3.05021 -0.111321 3.76958 0.332986 4.21275L8.62024 12.5L0.332986 20.7873C-0.111321 21.2316 -0.111321 21.9509 0.332986 22.3941L2.60566 24.6668C3.04996 25.1111 3.76933 25.1111 4.2125 24.6668L12.4998 16.3795L20.787 24.6668C21.2302 25.1111 21.9507 25.1111 22.3939 24.6668L24.6665 22.3941C25.1108 21.9498 25.1108 21.2304 24.6665 20.7873L16.3793 12.5L24.6665 4.21275C25.1108 3.76958 25.1108 3.04907 24.6665 2.6059L22.3939 0.33323C21.9495 -0.111077 21.2302 -0.111077 20.787 0.33323L12.4998 8.62048L4.2125 0.33323C3.99035 0.111077 3.69984 0.000319673 3.40908 0.000319673Z" fill="#262626"/>
</svg>
