<svg width="11" height="11" viewBox="0 0 11 11" fill="none" xmlns="http://www.w3.org/2000/svg">
<path d="M1.71403 10.5C1.60707 10.5 1.51314 10.4284 1.48431 10.3251C1.45547 10.2228 1.50012 10.1131 1.59126 10.0582C2.10093 9.75223 2.30462 9.28441 2.2237 8.59524H1.23784C0.581218 8.59524 0.0473633 8.06138 0.0473633 7.40476V1.69048C0.0473633 1.03385 0.581218 0.5 1.23784 0.5H9.80927C10.4659 0.5 10.9997 1.03385 10.9997 1.69048V7.40476C10.9997 8.06138 10.4659 8.59524 9.80927 8.59524H4.49584C3.78713 10.3103 2.32322 10.5 1.71403 10.5Z" fill="#C2C9D1"/>
<path d="M1.71403 10.5C1.60707 10.5 1.51314 10.4284 1.48431 10.3251C1.45547 10.2228 1.50012 10.1131 1.59126 10.0582C2.10093 9.75223 2.30462 9.28441 2.2237 8.59524H1.23784C0.581218 8.59524 0.0473633 8.06138 0.0473633 7.40476V1.69048C0.0473633 1.03385 0.581218 0.5 1.23784 0.5H9.80927C10.4659 0.5 10.9997 1.03385 10.9997 1.69048V7.40476C10.9997 8.06138 10.4659 8.59524 9.80927 8.59524H4.49584C3.78713 10.3103 2.32322 10.5 1.71403 10.5Z" fill="white" fill-opacity="0.9"/>
</svg>
