<svg width="26" height="38" viewBox="0 0 26 38" fill="none" xmlns="http://www.w3.org/2000/svg">
<path fill-rule="evenodd" clip-rule="evenodd" d="M5.35946 25.698C5.35946 25.698 4.94493 28.525 4.09478 29.9238C3.20932 31.3819 1.13896 33.8821 1.91666 35.2713C2.69436 36.66 6.48475 37.6463 12.0259 33.7706L5.35946 25.698Z" stroke="#C2C9D1" stroke-width="1.5" stroke-linecap="round" stroke-linejoin="round"/>
<path fill-rule="evenodd" clip-rule="evenodd" d="M5.35946 25.698C5.35946 25.698 4.94493 28.525 4.09478 29.9238C3.20932 31.3819 1.13896 33.8821 1.91666 35.2713C2.69436 36.66 6.48475 37.6463 12.0259 33.7706L5.35946 25.698Z" stroke="black" stroke-opacity="0.25" stroke-width="1.5" stroke-linecap="round" stroke-linejoin="round"/>
<path fill-rule="evenodd" clip-rule="evenodd" d="M19.6396 25.8599C20.8635 26.2619 20.7122 28.9329 18.7188 31.7673L18.872 31.5497C15.4902 36.3584 12.9594 34.8256 11.8346 33.5704L5.05263 25.3266C3.51282 23.2298 3.72192 22.7116 4.20477 22.0246L4.05115 22.2435C4.41937 21.7194 4.83253 21.1866 6.12427 21.6139L19.6396 25.8599Z" stroke="#C2C9D1" stroke-width="1.5" stroke-linecap="round" stroke-linejoin="round"/>
<path fill-rule="evenodd" clip-rule="evenodd" d="M19.6396 25.8599C20.8635 26.2619 20.7122 28.9329 18.7188 31.7673L18.872 31.5497C15.4902 36.3584 12.9594 34.8256 11.8346 33.5704L5.05263 25.3266C3.51282 23.2298 3.72192 22.7116 4.20477 22.0246L4.05115 22.2435C4.41937 21.7194 4.83253 21.1866 6.12427 21.6139L19.6396 25.8599Z" stroke="black" stroke-opacity="0.25" stroke-width="1.5" stroke-linecap="round" stroke-linejoin="round"/>
<path fill-rule="evenodd" clip-rule="evenodd" d="M5.35946 12.3019C5.35946 12.3019 4.94493 9.47584 4.09478 8.0761C3.20932 6.61853 1.13896 4.11736 1.91666 2.72864C2.69436 1.33992 6.48475 0.353216 12.0259 4.23026L5.35946 12.3019Z" stroke="#C2C9D1" stroke-width="1.5" stroke-linecap="round" stroke-linejoin="round"/>
<path fill-rule="evenodd" clip-rule="evenodd" d="M5.35946 12.3019C5.35946 12.3019 4.94493 9.47584 4.09478 8.0761C3.20932 6.61853 1.13896 4.11736 1.91666 2.72864C2.69436 1.33992 6.48475 0.353216 12.0259 4.23026L5.35946 12.3019Z" stroke="black" stroke-opacity="0.25" stroke-width="1.5" stroke-linecap="round" stroke-linejoin="round"/>
<path fill-rule="evenodd" clip-rule="evenodd" d="M19.6396 12.1417C20.8635 11.7396 20.7122 9.0682 18.7188 6.23339L18.872 6.45138C15.4902 1.64179 12.9594 3.17553 11.8346 4.42933L5.05263 12.674C3.51282 14.7709 3.72191 15.289 4.20477 15.9751L4.05115 15.7585C4.41937 16.2821 4.83253 16.8149 6.12427 16.3854L19.6396 12.1417Z" stroke="#C2C9D1" stroke-width="1.5" stroke-linecap="round" stroke-linejoin="round"/>
<path fill-rule="evenodd" clip-rule="evenodd" d="M19.6396 12.1417C20.8635 11.7396 20.7122 9.0682 18.7188 6.23339L18.872 6.45138C15.4902 1.64179 12.9594 3.17553 11.8346 4.42933L5.05263 12.674C3.51282 14.7709 3.72191 15.289 4.20477 15.9751L4.05115 15.7585C4.41937 16.2821 4.83253 16.8149 6.12427 16.3854L19.6396 12.1417Z" stroke="black" stroke-opacity="0.25" stroke-width="1.5" stroke-linecap="round" stroke-linejoin="round"/>
<path fill-rule="evenodd" clip-rule="evenodd" d="M3.02143 18.8686C3.02143 19.9094 3.18513 20.5905 6.34225 21.7631L19.5155 25.8943C21.618 26.4616 24.2546 26.1518 24.2546 18.8686L24.2546 19.199C24.2546 11.9158 21.618 11.6065 19.5155 12.1728L6.34225 16.3045C3.18513 17.4771 3.02143 18.1591 3.02143 19.199L3.02143 18.8686Z" stroke="#C2C9D1" stroke-width="1.5" stroke-linecap="round" stroke-linejoin="round"/>
<path fill-rule="evenodd" clip-rule="evenodd" d="M3.02143 18.8686C3.02143 19.9094 3.18513 20.5905 6.34225 21.7631L19.5155 25.8943C21.618 26.4616 24.2546 26.1518 24.2546 18.8686L24.2546 19.199C24.2546 11.9158 21.618 11.6065 19.5155 12.1728L6.34225 16.3045C3.18513 17.4771 3.02143 18.1591 3.02143 19.199L3.02143 18.8686Z" stroke="black" stroke-opacity="0.25" stroke-width="1.5" stroke-linecap="round" stroke-linejoin="round"/>
</svg>
