<svg width="25" height="26" viewBox="0 0 25 26" fill="none" xmlns="http://www.w3.org/2000/svg">
<path d="M6.80735 0.199905C6.75237 0.201096 6.69755 0.206282 6.64331 0.215422H2.28516C1.04455 0.215422 0.0151938 1.24478 0.0151938 2.48539V6.83468C-0.00506456 6.95724 -0.00506456 7.08231 0.0151938 7.20488V12.5096C-0.00506459 12.6322 -0.00506459 12.7572 0.0151938 12.8798V18.1845C-0.00506459 18.3071 -0.00506459 18.4321 0.0151938 18.5547V22.9151C0.0151938 24.1557 1.04455 25.185 2.28516 25.185H6.63445C6.75701 25.2053 6.88208 25.2053 7.00465 25.185H22.7148C23.9554 25.185 24.9848 24.1557 24.9848 22.9151V18.5658C25.0051 18.4432 25.0051 18.3182 24.9848 18.1956V12.8909C25.0051 12.7683 25.0051 12.6432 24.9848 12.5207V7.21596C25.0051 7.09339 25.0051 6.96833 24.9848 6.84576V2.48539C24.9848 1.24478 23.9554 0.215422 22.7148 0.215422H7.00021C6.93648 0.20477 6.87196 0.199579 6.80735 0.199905ZM2.28516 2.48539H5.69011V5.89034H2.28516V2.48539ZM7.96007 2.48539H22.7148V5.89034H7.96007V2.48539ZM2.28516 8.1603H5.69011V11.5652H2.28516V8.1603ZM7.96007 8.1603H22.7148V11.5652H7.96007V8.1603ZM2.28516 13.8352H5.69011V17.2402H2.28516V13.8352ZM7.96007 13.8352H22.7148V17.2402H7.96007V13.8352ZM2.28516 19.5101H5.69011V22.9151H2.28516V19.5101ZM7.96007 19.5101H22.7148V22.9151H7.96007V19.5101Z" fill="#49C3A7"/>
</svg>
