<svg width="16" height="16" viewBox="0 0 16 16" fill="none" xmlns="http://www.w3.org/2000/svg">
<path d="M12.1672 0.0869141C10.7866 0.0869141 9.04224 1.96191 9.04224 4.14941C9.04224 6.96191 11.5422 6.94061 11.5422 8.13623C11.5422 9.18623 10.9172 11.3032 10.9172 13.8369C10.9172 14.5275 11.4766 15.0869 12.1672 15.0869C12.8579 15.0869 13.4172 14.5275 13.4172 13.8369C13.4172 11.3032 12.7922 9.18623 12.7922 8.13623C12.7922 6.94061 15.2922 6.96191 15.2922 4.14941C15.2922 1.96191 13.5479 0.0869141 12.1672 0.0869141ZM7.16724 0.711914C3.37036 0.711914 0.292236 3.79004 0.292236 7.58691C0.292236 11.3838 3.37036 14.4619 7.16724 14.4619C8.05599 14.4619 8.90251 14.2878 9.68188 13.981C9.67938 13.9322 9.66724 13.8863 9.66724 13.8369C9.66724 12.8169 9.76279 11.8571 9.87842 11.0159C9.13279 11.6065 8.19224 11.9619 7.16724 11.9619C4.75099 11.9619 2.79224 10.0032 2.79224 7.58691C2.79224 5.17066 4.75099 3.21191 7.16724 3.21191C7.40661 3.21191 7.63917 3.23607 7.86792 3.27295C8.0073 2.41857 8.34042 1.6064 8.80542 0.915771C8.27917 0.787021 7.73286 0.711914 7.16724 0.711914Z" fill="#DB353A"/>
</svg>
