<svg width="35" height="36" viewBox="0 0 35 36" fill="none" xmlns="http://www.w3.org/2000/svg">
<path d="M17.5 0.5C7.8435 0.5 0 8.3435 0 18C0 27.6565 7.8435 35.5 17.5 35.5C27.1565 35.5 35 27.6565 35 18C35 8.3435 27.1565 0.5 17.5 0.5ZM17.5 2.02174C26.3332 2.02174 33.4783 9.16678 33.4783 18C33.4783 26.8332 26.3332 33.9783 17.5 33.9783C8.66678 33.9783 1.52174 26.8332 1.52174 18C1.52174 9.16678 8.66678 2.02174 17.5 2.02174ZM19.8777 8.06114C16.9888 8.03142 13.7283 8.82498 11.3179 11.4137C7.48684 15.5272 7.60572 19.596 8.77378 22.4463C9.82889 25.0172 11.5854 26.6341 11.9361 26.9402C11.9421 28.3966 12.0729 29.7697 12.2928 30.911C12.3017 31.2112 12.486 31.4817 12.7654 31.5946C13.0448 31.7075 13.3657 31.6481 13.5827 31.4371C13.7997 31.2261 13.871 30.908 13.767 30.6257C13.1844 27.5763 13.3836 22.2621 15.0747 19.0224C17.1671 15.0189 20.0917 13.6012 20.0917 13.6012C20.4365 13.4467 20.6178 13.0662 20.5167 12.7007C20.4157 12.3381 20.062 12.1033 19.6875 12.1508C19.5864 12.1627 19.4913 12.1954 19.4022 12.2459C19.4022 12.2459 16.0169 13.9341 13.7194 18.3329C12.7238 20.238 12.2185 22.5533 12.0312 24.824C11.4279 24.1226 10.6938 23.1151 10.1766 21.8519C9.17204 19.3999 8.94022 16.19 12.4355 12.4361C14.4833 10.2368 17.2711 9.55613 19.8777 9.58288C22.1336 9.60666 24.0744 10.2041 25.2276 10.7242C24.3122 12.3886 23.9109 14.2967 23.587 16.2167C23.2095 18.4637 22.7845 20.6482 21.5897 22.3274C19.3606 25.4571 15.0985 25.7038 15.0985 25.7038C14.6794 25.7246 14.3525 26.0813 14.3733 26.5003C14.3941 26.9194 14.7508 27.2463 15.1698 27.2255C15.1698 27.2255 20.0977 27.0413 22.8261 23.2072C24.2795 21.1653 24.7045 18.7341 25.0849 16.4783C25.4654 14.2224 25.8101 12.1419 26.8444 10.748C26.9693 10.5756 27.0168 10.3616 26.9752 10.1535C26.9366 9.94845 26.8088 9.76715 26.6304 9.65421C25.3049 8.89037 22.7666 8.09086 19.8777 8.06114Z" fill="#C2C9D1"/>
<path d="M17.5 0.5C7.8435 0.5 0 8.3435 0 18C0 27.6565 7.8435 35.5 17.5 35.5C27.1565 35.5 35 27.6565 35 18C35 8.3435 27.1565 0.5 17.5 0.5ZM17.5 2.02174C26.3332 2.02174 33.4783 9.16678 33.4783 18C33.4783 26.8332 26.3332 33.9783 17.5 33.9783C8.66678 33.9783 1.52174 26.8332 1.52174 18C1.52174 9.16678 8.66678 2.02174 17.5 2.02174ZM19.8777 8.06114C16.9888 8.03142 13.7283 8.82498 11.3179 11.4137C7.48684 15.5272 7.60572 19.596 8.77378 22.4463C9.82889 25.0172 11.5854 26.6341 11.9361 26.9402C11.9421 28.3966 12.0729 29.7697 12.2928 30.911C12.3017 31.2112 12.486 31.4817 12.7654 31.5946C13.0448 31.7075 13.3657 31.6481 13.5827 31.4371C13.7997 31.2261 13.871 30.908 13.767 30.6257C13.1844 27.5763 13.3836 22.2621 15.0747 19.0224C17.1671 15.0189 20.0917 13.6012 20.0917 13.6012C20.4365 13.4467 20.6178 13.0662 20.5167 12.7007C20.4157 12.3381 20.062 12.1033 19.6875 12.1508C19.5864 12.1627 19.4913 12.1954 19.4022 12.2459C19.4022 12.2459 16.0169 13.9341 13.7194 18.3329C12.7238 20.238 12.2185 22.5533 12.0312 24.824C11.4279 24.1226 10.6938 23.1151 10.1766 21.8519C9.17204 19.3999 8.94022 16.19 12.4355 12.4361C14.4833 10.2368 17.2711 9.55613 19.8777 9.58288C22.1336 9.60666 24.0744 10.2041 25.2276 10.7242C24.3122 12.3886 23.9109 14.2967 23.587 16.2167C23.2095 18.4637 22.7845 20.6482 21.5897 22.3274C19.3606 25.4571 15.0985 25.7038 15.0985 25.7038C14.6794 25.7246 14.3525 26.0813 14.3733 26.5003C14.3941 26.9194 14.7508 27.2463 15.1698 27.2255C15.1698 27.2255 20.0977 27.0413 22.8261 23.2072C24.2795 21.1653 24.7045 18.7341 25.0849 16.4783C25.4654 14.2224 25.8101 12.1419 26.8444 10.748C26.9693 10.5756 27.0168 10.3616 26.9752 10.1535C26.9366 9.94845 26.8088 9.76715 26.6304 9.65421C25.3049 8.89037 22.7666 8.09086 19.8777 8.06114Z" fill="black" fill-opacity="0.25"/>
</svg>
