<svg width="24" height="36" viewBox="0 0 24 36" fill="none" xmlns="http://www.w3.org/2000/svg">
<path d="M3.11958 0.500095V2.02183H10.8234L11.3465 5.11285C5.47351 5.5765 0.836975 10.4894 0.836975 16.4783C0.836975 16.8974 1.17877 17.2392 1.59784 17.2392H2.45382L4.64131 34.8342C4.68886 35.2176 5.0158 35.5029 5.40218 35.5H19.0978C19.4842 35.5029 19.8111 35.2176 19.8587 34.8342L22.0461 17.2392H22.9021C23.3212 17.2392 23.663 16.8974 23.663 16.4783C23.663 10.4092 18.8986 5.43681 12.9157 5.08907L12.25 1.14208C12.1905 0.767588 11.8666 0.494151 11.4891 0.500095H3.11958ZM12.25 6.58703C17.4601 6.58703 21.6776 10.6083 22.0699 15.7174H2.43004C2.82236 10.6083 7.03982 6.58703 12.25 6.58703ZM3.97555 17.2392H20.5244L20.144 20.2826H16.8152C16.7914 20.2826 16.7676 20.2826 16.7439 20.2826C16.3248 20.3034 15.9978 20.6601 16.0186 21.0792C16.0395 21.4982 16.3961 21.8252 16.8152 21.8044H19.9538L18.432 33.9782H6.06794L4.5462 21.8044H13.7717C14.0452 21.8073 14.3008 21.6647 14.4404 21.4269C14.5772 21.1891 14.5772 20.8979 14.4404 20.6601C14.3008 20.4223 14.0452 20.2797 13.7717 20.2826H4.35598L3.97555 17.2392Z" fill="#C2C9D1"/>
<path d="M3.11958 0.500095V2.02183H10.8234L11.3465 5.11285C5.47351 5.5765 0.836975 10.4894 0.836975 16.4783C0.836975 16.8974 1.17877 17.2392 1.59784 17.2392H2.45382L4.64131 34.8342C4.68886 35.2176 5.0158 35.5029 5.40218 35.5H19.0978C19.4842 35.5029 19.8111 35.2176 19.8587 34.8342L22.0461 17.2392H22.9021C23.3212 17.2392 23.663 16.8974 23.663 16.4783C23.663 10.4092 18.8986 5.43681 12.9157 5.08907L12.25 1.14208C12.1905 0.767588 11.8666 0.494151 11.4891 0.500095H3.11958ZM12.25 6.58703C17.4601 6.58703 21.6776 10.6083 22.0699 15.7174H2.43004C2.82236 10.6083 7.03982 6.58703 12.25 6.58703ZM3.97555 17.2392H20.5244L20.144 20.2826H16.8152C16.7914 20.2826 16.7676 20.2826 16.7439 20.2826C16.3248 20.3034 15.9978 20.6601 16.0186 21.0792C16.0395 21.4982 16.3961 21.8252 16.8152 21.8044H19.9538L18.432 33.9782H6.06794L4.5462 21.8044H13.7717C14.0452 21.8073 14.3008 21.6647 14.4404 21.4269C14.5772 21.1891 14.5772 20.8979 14.4404 20.6601C14.3008 20.4223 14.0452 20.2797 13.7717 20.2826H4.35598L3.97555 17.2392Z" fill="black" fill-opacity="0.25"/>
</svg>
