<svg width="13" height="13" viewBox="0 0 13 13" fill="none" xmlns="http://www.w3.org/2000/svg">
<path d="M6.79224 0.0869141C4.35698 0.0869141 2.25729 1.52828 1.314 3.628V2.26048C1.31448 2.22558 1.30795 2.19093 1.29479 2.1586C1.28164 2.12627 1.26214 2.09691 1.23743 2.07225C1.21273 2.04759 1.18332 2.02814 1.15097 2.01505C1.11861 2.00196 1.08395 1.9955 1.04905 1.99604C0.979956 1.99712 0.914109 2.02557 0.865966 2.07515C0.817822 2.12473 0.791315 2.19138 0.792261 2.26048V4.78917L3.05754 3.93982C3.0901 3.92817 3.12002 3.91016 3.14555 3.88685C3.17109 3.86353 3.19174 3.83537 3.2063 3.804C3.22086 3.77263 3.22903 3.73868 3.23035 3.70412C3.23167 3.66957 3.22611 3.63509 3.21398 3.60271C3.20186 3.57032 3.18342 3.54067 3.15973 3.51547C3.13604 3.49028 3.10758 3.47004 3.07601 3.45594C3.04443 3.44185 3.01036 3.43417 2.97579 3.43335C2.94122 3.43254 2.90683 3.4386 2.87462 3.4512L1.78071 3.86135C2.63688 1.93325 4.55462 0.608651 6.79224 0.608651C9.83284 0.608651 12.2705 3.04629 12.2705 6.08689C12.27 6.12146 12.2764 6.15578 12.2893 6.18786C12.3022 6.21993 12.3213 6.24913 12.3456 6.27375C12.3698 6.29837 12.3988 6.31792 12.4307 6.33126C12.4625 6.3446 12.4968 6.35147 12.5313 6.35147C12.5659 6.35147 12.6001 6.3446 12.632 6.33126C12.6639 6.31792 12.6928 6.29837 12.7171 6.27375C12.7414 6.24913 12.7605 6.21993 12.7734 6.18786C12.7863 6.15578 12.7927 6.12146 12.7922 6.08689C12.7922 2.76647 10.1126 0.0869141 6.79224 0.0869141ZM6.78663 1.65212C5.28585 1.68578 4.42773 2.53018 4.43321 3.96835C4.43451 4.33383 4.48907 4.74651 4.59472 5.19729C4.49455 5.33685 4.42584 5.54318 4.44697 5.79596C4.51531 6.29604 4.70161 6.51118 4.85865 6.60353C4.95778 7.03475 5.2625 7.46685 5.48789 7.67503V8.47139C5.33476 8.78026 4.81347 8.97258 4.26303 9.17553C3.78747 9.35083 3.25627 9.55271 2.84201 9.87254C1.89793 8.88802 1.314 7.55532 1.314 6.08689C1.314 5.94289 1.19739 5.82602 1.05313 5.82602C0.908869 5.82602 0.792261 5.94289 0.792261 6.08689C0.792261 9.39522 3.48364 12.0869 6.79224 12.0869C9.17464 12.0869 11.3055 10.6834 12.2705 8.5417V9.9133C12.27 9.94787 12.2764 9.98219 12.2893 10.0143C12.3022 10.0463 12.3213 10.0755 12.3456 10.1002C12.3698 10.1248 12.3988 10.1443 12.4307 10.1577C12.4625 10.171 12.4968 10.1779 12.5313 10.1779C12.5659 10.1779 12.6001 10.171 12.632 10.1577C12.6639 10.1443 12.6928 10.1248 12.7171 10.1002C12.7414 10.0755 12.7605 10.0463 12.7734 10.0143C12.7863 9.98219 12.7927 9.94787 12.7922 9.9133V7.38461L10.5269 8.23396C10.4944 8.24561 10.4645 8.26361 10.4389 8.28693C10.4134 8.31025 10.3927 8.33841 10.3782 8.36978C10.3636 8.40115 10.3554 8.4351 10.3541 8.46965C10.3528 8.50421 10.3584 8.53868 10.3705 8.57107C10.3826 8.60346 10.4011 8.63311 10.4247 8.65831C10.4484 8.6835 10.4769 8.70374 10.5085 8.71783C10.54 8.73193 10.5741 8.73961 10.6087 8.74043C10.6433 8.74124 10.6776 8.73517 10.7098 8.72258L11.8027 8.31242C11.5303 8.92021 11.1557 9.46327 10.7027 9.92349C10.2892 9.57262 9.74897 9.35949 9.26845 9.17349C8.74384 8.97054 8.24736 8.77842 8.09658 8.4719V7.67248C8.31336 7.46274 8.58699 7.03617 8.69525 6.62034C8.90212 6.51965 9.09547 6.26583 9.13903 5.78322C9.16173 5.5114 9.05203 5.31011 8.92708 5.18098C9.01264 4.9029 9.13824 4.40688 9.13954 3.89193C9.14267 2.70706 8.54132 2.31079 7.98958 2.19679C7.77776 1.9174 7.37358 1.65212 6.78663 1.65212Z" fill="#C2C9D1"/>
<path d="M6.79224 0.0869141C4.35698 0.0869141 2.25729 1.52828 1.314 3.628V2.26048C1.31448 2.22558 1.30795 2.19093 1.29479 2.1586C1.28164 2.12627 1.26214 2.09691 1.23743 2.07225C1.21273 2.04759 1.18332 2.02814 1.15097 2.01505C1.11861 2.00196 1.08395 1.9955 1.04905 1.99604C0.979956 1.99712 0.914109 2.02557 0.865966 2.07515C0.817822 2.12473 0.791315 2.19138 0.792261 2.26048V4.78917L3.05754 3.93982C3.0901 3.92817 3.12002 3.91016 3.14555 3.88685C3.17109 3.86353 3.19174 3.83537 3.2063 3.804C3.22086 3.77263 3.22903 3.73868 3.23035 3.70412C3.23167 3.66957 3.22611 3.63509 3.21398 3.60271C3.20186 3.57032 3.18342 3.54067 3.15973 3.51547C3.13604 3.49028 3.10758 3.47004 3.07601 3.45594C3.04443 3.44185 3.01036 3.43417 2.97579 3.43335C2.94122 3.43254 2.90683 3.4386 2.87462 3.4512L1.78071 3.86135C2.63688 1.93325 4.55462 0.608651 6.79224 0.608651C9.83284 0.608651 12.2705 3.04629 12.2705 6.08689C12.27 6.12146 12.2764 6.15578 12.2893 6.18786C12.3022 6.21993 12.3213 6.24913 12.3456 6.27375C12.3698 6.29837 12.3988 6.31792 12.4307 6.33126C12.4625 6.3446 12.4968 6.35147 12.5313 6.35147C12.5659 6.35147 12.6001 6.3446 12.632 6.33126C12.6639 6.31792 12.6928 6.29837 12.7171 6.27375C12.7414 6.24913 12.7605 6.21993 12.7734 6.18786C12.7863 6.15578 12.7927 6.12146 12.7922 6.08689C12.7922 2.76647 10.1126 0.0869141 6.79224 0.0869141ZM6.78663 1.65212C5.28585 1.68578 4.42773 2.53018 4.43321 3.96835C4.43451 4.33383 4.48907 4.74651 4.59472 5.19729C4.49455 5.33685 4.42584 5.54318 4.44697 5.79596C4.51531 6.29604 4.70161 6.51118 4.85865 6.60353C4.95778 7.03475 5.2625 7.46685 5.48789 7.67503V8.47139C5.33476 8.78026 4.81347 8.97258 4.26303 9.17553C3.78747 9.35083 3.25627 9.55271 2.84201 9.87254C1.89793 8.88802 1.314 7.55532 1.314 6.08689C1.314 5.94289 1.19739 5.82602 1.05313 5.82602C0.908869 5.82602 0.792261 5.94289 0.792261 6.08689C0.792261 9.39522 3.48364 12.0869 6.79224 12.0869C9.17464 12.0869 11.3055 10.6834 12.2705 8.5417V9.9133C12.27 9.94787 12.2764 9.98219 12.2893 10.0143C12.3022 10.0463 12.3213 10.0755 12.3456 10.1002C12.3698 10.1248 12.3988 10.1443 12.4307 10.1577C12.4625 10.171 12.4968 10.1779 12.5313 10.1779C12.5659 10.1779 12.6001 10.171 12.632 10.1577C12.6639 10.1443 12.6928 10.1248 12.7171 10.1002C12.7414 10.0755 12.7605 10.0463 12.7734 10.0143C12.7863 9.98219 12.7927 9.94787 12.7922 9.9133V7.38461L10.5269 8.23396C10.4944 8.24561 10.4645 8.26361 10.4389 8.28693C10.4134 8.31025 10.3927 8.33841 10.3782 8.36978C10.3636 8.40115 10.3554 8.4351 10.3541 8.46965C10.3528 8.50421 10.3584 8.53868 10.3705 8.57107C10.3826 8.60346 10.4011 8.63311 10.4247 8.65831C10.4484 8.6835 10.4769 8.70374 10.5085 8.71783C10.54 8.73193 10.5741 8.73961 10.6087 8.74043C10.6433 8.74124 10.6776 8.73517 10.7098 8.72258L11.8027 8.31242C11.5303 8.92021 11.1557 9.46327 10.7027 9.92349C10.2892 9.57262 9.74897 9.35949 9.26845 9.17349C8.74384 8.97054 8.24736 8.77842 8.09658 8.4719V7.67248C8.31336 7.46274 8.58699 7.03617 8.69525 6.62034C8.90212 6.51965 9.09547 6.26583 9.13903 5.78322C9.16173 5.5114 9.05203 5.31011 8.92708 5.18098C9.01264 4.9029 9.13824 4.40688 9.13954 3.89193C9.14267 2.70706 8.54132 2.31079 7.98958 2.19679C7.77776 1.9174 7.37358 1.65212 6.78663 1.65212Z" fill="black" fill-opacity="0.5"/>
</svg>
