<svg width="36" height="36" viewBox="0 0 36 36" fill="none" xmlns="http://www.w3.org/2000/svg">
<path d="M17.9878 5.77041e-05C17.9432 0.000841671 17.8987 0.00544127 17.8549 0.0138061C8.04736 0.0919873 0.0964478 8.04041 0.014163 17.8471C-0.00472101 17.9449 -0.00472101 18.0455 0.014163 18.1434C0.0915264 27.9517 8.04018 35.9035 17.8472 35.9858C17.9451 36.0047 18.0457 36.0047 18.1436 35.9858C27.9518 35.9085 35.9035 27.9597 35.9858 18.1526C36.0047 18.0547 36.0047 17.9541 35.9858 17.8562C35.9085 8.04484 27.9549 0.0911945 18.1436 0.0138061C18.0922 0.00402864 18.04 -0.000577206 17.9878 5.77041e-05ZM17.2179 1.59488V2.35715C17.2164 2.46079 17.2356 2.56369 17.2742 2.65987C17.3129 2.75605 17.3702 2.84359 17.443 2.9174C17.5158 2.9912 17.6025 3.04982 17.6981 3.08982C17.7937 3.12982 17.8963 3.15042 18 3.15042C18.1037 3.15042 18.2063 3.12982 18.3019 3.08982C18.3975 3.04982 18.4842 2.9912 18.557 2.9174C18.6298 2.84359 18.6871 2.75605 18.7258 2.65987C18.7644 2.56369 18.7836 2.46079 18.7821 2.35715V1.59488C27.2391 1.99019 34.0095 8.76065 34.4048 17.2177H33.6425C33.5389 17.2162 33.436 17.2354 33.3398 17.274C33.2436 17.3127 33.1561 17.37 33.0823 17.4428C33.0085 17.5156 32.9499 17.6023 32.9099 17.6979C32.8699 17.7936 32.8493 17.8962 32.8493 17.9998C32.8493 18.1035 32.8699 18.2061 32.9099 18.3017C32.9499 18.3973 33.0085 18.4841 33.0823 18.5568C33.1561 18.6296 33.2436 18.687 33.3398 18.7256C33.436 18.7643 33.5389 18.7834 33.6425 18.782H34.4048C34.0095 27.239 27.2391 34.0095 18.7821 34.4048V33.6425C18.7836 33.5378 18.764 33.434 18.7246 33.337C18.6851 33.2401 18.6266 33.1521 18.5526 33.0781C18.4785 33.0042 18.3903 32.9459 18.2933 32.9067C18.1963 32.8674 18.0924 32.848 17.9878 32.8497C17.7806 32.8529 17.5832 32.9382 17.4389 33.0868C17.2945 33.2355 17.215 33.4353 17.2179 33.6425V34.4048C8.76092 34.0095 1.99053 27.239 1.59522 18.782H2.35749C2.46113 18.7834 2.56402 18.7643 2.6602 18.7256C2.75638 18.687 2.84391 18.6296 2.91772 18.5568C2.99153 18.4841 3.05014 18.3973 3.09015 18.3017C3.13015 18.2061 3.15075 18.1035 3.15075 17.9998C3.15075 17.8962 3.13015 17.7936 3.09015 17.6979C3.05014 17.6023 2.99153 17.5156 2.91772 17.4428C2.84391 17.37 2.75638 17.3127 2.6602 17.274C2.56402 17.2354 2.46113 17.2162 2.35749 17.2177H1.59522C1.99053 8.76065 8.76092 1.99019 17.2179 1.59488ZM27.358 7.83209C27.2111 7.8374 27.0687 7.88399 26.9471 7.96652L15.7453 15.5343C15.6621 15.5904 15.5906 15.6619 15.5345 15.7451L7.96679 26.947C7.86502 27.0975 7.81882 27.2788 7.83613 27.4597C7.85345 27.6405 7.93319 27.8098 8.06168 27.9382C8.19016 28.0667 8.35937 28.1465 8.54024 28.1638C8.72112 28.1811 8.90238 28.1349 9.05291 28.0331L20.2563 20.4654C20.3394 20.4093 20.411 20.3377 20.4671 20.2546L28.0332 9.05264C28.1142 8.93308 28.1606 8.79341 28.1671 8.64912C28.1736 8.50483 28.1401 8.36156 28.0702 8.23517C28.0002 8.10878 27.8967 8.00422 27.771 7.93308C27.6453 7.86193 27.5024 7.82697 27.358 7.83209ZM16.7458 16.7457L19.2542 19.254L11.523 24.4769L16.7458 16.7457Z" fill="#C2C9D1"/>
<path d="M17.9878 5.77041e-05C17.9432 0.000841671 17.8987 0.00544127 17.8549 0.0138061C8.04736 0.0919873 0.0964478 8.04041 0.014163 17.8471C-0.00472101 17.9449 -0.00472101 18.0455 0.014163 18.1434C0.0915264 27.9517 8.04018 35.9035 17.8472 35.9858C17.9451 36.0047 18.0457 36.0047 18.1436 35.9858C27.9518 35.9085 35.9035 27.9597 35.9858 18.1526C36.0047 18.0547 36.0047 17.9541 35.9858 17.8562C35.9085 8.04484 27.9549 0.0911945 18.1436 0.0138061C18.0922 0.00402864 18.04 -0.000577206 17.9878 5.77041e-05ZM17.2179 1.59488V2.35715C17.2164 2.46079 17.2356 2.56369 17.2742 2.65987C17.3129 2.75605 17.3702 2.84359 17.443 2.9174C17.5158 2.9912 17.6025 3.04982 17.6981 3.08982C17.7937 3.12982 17.8963 3.15042 18 3.15042C18.1037 3.15042 18.2063 3.12982 18.3019 3.08982C18.3975 3.04982 18.4842 2.9912 18.557 2.9174C18.6298 2.84359 18.6871 2.75605 18.7258 2.65987C18.7644 2.56369 18.7836 2.46079 18.7821 2.35715V1.59488C27.2391 1.99019 34.0095 8.76065 34.4048 17.2177H33.6425C33.5389 17.2162 33.436 17.2354 33.3398 17.274C33.2436 17.3127 33.1561 17.37 33.0823 17.4428C33.0085 17.5156 32.9499 17.6023 32.9099 17.6979C32.8699 17.7936 32.8493 17.8962 32.8493 17.9998C32.8493 18.1035 32.8699 18.2061 32.9099 18.3017C32.9499 18.3973 33.0085 18.4841 33.0823 18.5568C33.1561 18.6296 33.2436 18.687 33.3398 18.7256C33.436 18.7643 33.5389 18.7834 33.6425 18.782H34.4048C34.0095 27.239 27.2391 34.0095 18.7821 34.4048V33.6425C18.7836 33.5378 18.764 33.434 18.7246 33.337C18.6851 33.2401 18.6266 33.1521 18.5526 33.0781C18.4785 33.0042 18.3903 32.9459 18.2933 32.9067C18.1963 32.8674 18.0924 32.848 17.9878 32.8497C17.7806 32.8529 17.5832 32.9382 17.4389 33.0868C17.2945 33.2355 17.215 33.4353 17.2179 33.6425V34.4048C8.76092 34.0095 1.99053 27.239 1.59522 18.782H2.35749C2.46113 18.7834 2.56402 18.7643 2.6602 18.7256C2.75638 18.687 2.84391 18.6296 2.91772 18.5568C2.99153 18.4841 3.05014 18.3973 3.09015 18.3017C3.13015 18.2061 3.15075 18.1035 3.15075 17.9998C3.15075 17.8962 3.13015 17.7936 3.09015 17.6979C3.05014 17.6023 2.99153 17.5156 2.91772 17.4428C2.84391 17.37 2.75638 17.3127 2.6602 17.274C2.56402 17.2354 2.46113 17.2162 2.35749 17.2177H1.59522C1.99053 8.76065 8.76092 1.99019 17.2179 1.59488ZM27.358 7.83209C27.2111 7.8374 27.0687 7.88399 26.9471 7.96652L15.7453 15.5343C15.6621 15.5904 15.5906 15.6619 15.5345 15.7451L7.96679 26.947C7.86502 27.0975 7.81882 27.2788 7.83613 27.4597C7.85345 27.6405 7.93319 27.8098 8.06168 27.9382C8.19016 28.0667 8.35937 28.1465 8.54024 28.1638C8.72112 28.1811 8.90238 28.1349 9.05291 28.0331L20.2563 20.4654C20.3394 20.4093 20.411 20.3377 20.4671 20.2546L28.0332 9.05264C28.1142 8.93308 28.1606 8.79341 28.1671 8.64912C28.1736 8.50483 28.1401 8.36156 28.0702 8.23517C28.0002 8.10878 27.8967 8.00422 27.771 7.93308C27.6453 7.86193 27.5024 7.82697 27.358 7.83209ZM16.7458 16.7457L19.2542 19.254L11.523 24.4769L16.7458 16.7457Z" fill="white" fill-opacity="0.9"/>
</svg>
