<svg width="37" height="36" viewBox="0 0 37 36" fill="none" xmlns="http://www.w3.org/2000/svg">
<path d="M18.4878 5.77041e-05C18.4432 0.000841671 18.3987 0.00544127 18.3549 0.0138061C8.54736 0.0919873 0.596448 8.04041 0.514163 17.8471C0.495279 17.9449 0.495279 18.0455 0.514163 18.1434C0.591526 27.9517 8.54018 35.9035 18.3472 35.9858C18.4451 36.0047 18.5457 36.0047 18.6436 35.9858C28.4518 35.9085 36.4035 27.9597 36.4858 18.1526C36.5047 18.0547 36.5047 17.9541 36.4858 17.8562C36.4085 8.04484 28.4549 0.0911945 18.6436 0.0138061C18.5922 0.00402864 18.54 -0.000577206 18.4878 5.77041e-05ZM17.7179 1.59488V2.35715C17.7164 2.46079 17.7356 2.56369 17.7742 2.65987C17.8129 2.75605 17.8702 2.84359 17.943 2.9174C18.0158 2.9912 18.1025 3.04982 18.1981 3.08982C18.2937 3.12982 18.3963 3.15042 18.5 3.15042C18.6037 3.15042 18.7063 3.12982 18.8019 3.08982C18.8975 3.04982 18.9842 2.9912 19.057 2.9174C19.1298 2.84359 19.1871 2.75605 19.2258 2.65987C19.2644 2.56369 19.2836 2.46079 19.2821 2.35715V1.59488C27.7391 1.99019 34.5095 8.76065 34.9048 17.2177H34.1425C34.0389 17.2162 33.936 17.2354 33.8398 17.274C33.7436 17.3127 33.6561 17.37 33.5823 17.4428C33.5085 17.5156 33.4499 17.6023 33.4099 17.6979C33.3699 17.7936 33.3493 17.8962 33.3493 17.9998C33.3493 18.1035 33.3699 18.2061 33.4099 18.3017C33.4499 18.3973 33.5085 18.4841 33.5823 18.5568C33.6561 18.6296 33.7436 18.687 33.8398 18.7256C33.936 18.7643 34.0389 18.7834 34.1425 18.782H34.9048C34.5095 27.239 27.7391 34.0095 19.2821 34.4048V33.6425C19.2836 33.5378 19.264 33.434 19.2246 33.337C19.1851 33.2401 19.1266 33.1521 19.0526 33.0781C18.9785 33.0042 18.8903 32.9459 18.7933 32.9067C18.6963 32.8674 18.5924 32.848 18.4878 32.8497C18.2806 32.8529 18.0832 32.9382 17.9389 33.0868C17.7945 33.2355 17.715 33.4353 17.7179 33.6425V34.4048C9.26092 34.0095 2.49053 27.239 2.09522 18.782H2.85749C2.96113 18.7834 3.06402 18.7643 3.1602 18.7256C3.25638 18.687 3.34391 18.6296 3.41772 18.5568C3.49153 18.4841 3.55014 18.3973 3.59015 18.3017C3.63015 18.2061 3.65075 18.1035 3.65075 17.9998C3.65075 17.8962 3.63015 17.7936 3.59015 17.6979C3.55014 17.6023 3.49153 17.5156 3.41772 17.4428C3.34391 17.37 3.25638 17.3127 3.1602 17.274C3.06402 17.2354 2.96113 17.2162 2.85749 17.2177H2.09522C2.49053 8.76065 9.26092 1.99019 17.7179 1.59488ZM27.858 7.83209C27.7111 7.8374 27.5687 7.88399 27.4471 7.96652L16.2453 15.5343C16.1621 15.5904 16.0906 15.6619 16.0345 15.7451L8.46679 26.947C8.36502 27.0975 8.31882 27.2788 8.33613 27.4597C8.35345 27.6405 8.43319 27.8098 8.56168 27.9382C8.69016 28.0667 8.85937 28.1465 9.04024 28.1638C9.22112 28.1811 9.40238 28.1349 9.55291 28.0331L20.7563 20.4654C20.8394 20.4093 20.911 20.3377 20.9671 20.2546L28.5332 9.05264C28.6142 8.93308 28.6606 8.79341 28.6671 8.64912C28.6736 8.50483 28.6401 8.36156 28.5702 8.23517C28.5002 8.10878 28.3967 8.00422 28.271 7.93308C28.1453 7.86193 28.0024 7.82697 27.858 7.83209ZM17.2458 16.7457L19.7542 19.254L12.023 24.4769L17.2458 16.7457Z" fill="#262626"/>
</svg>
