<svg width="13" height="11" viewBox="0 0 13 11" fill="none" xmlns="http://www.w3.org/2000/svg">
<path d="M6.34039 10.5L6.18143 10.3682C5.87998 10.1162 5.47192 9.84283 4.99891 9.52685C3.15632 8.29296 0.633301 6.60449 0.633301 3.72574C0.633301 1.94713 2.08043 0.5 3.85904 0.5C4.82541 0.5 5.73071 0.930358 6.34039 1.66604C6.95006 0.930358 7.85536 0.5 8.82173 0.5C10.6003 0.5 12.0475 1.94713 12.0475 3.72574C12.0475 6.60449 9.52445 8.29296 7.68186 9.52685C7.20886 9.84283 6.80079 10.1162 6.49935 10.3682L6.34039 10.5Z" fill="#C2C9D1"/>
<path d="M6.34039 10.5L6.18143 10.3682C5.87998 10.1162 5.47192 9.84283 4.99891 9.52685C3.15632 8.29296 0.633301 6.60449 0.633301 3.72574C0.633301 1.94713 2.08043 0.5 3.85904 0.5C4.82541 0.5 5.73071 0.930358 6.34039 1.66604C6.95006 0.930358 7.85536 0.5 8.82173 0.5C10.6003 0.5 12.0475 1.94713 12.0475 3.72574C12.0475 6.60449 9.52445 8.29296 7.68186 9.52685C7.20886 9.84283 6.80079 10.1162 6.49935 10.3682L6.34039 10.5Z" fill="white" fill-opacity="0.9"/>
</svg>
