<svg width="25" height="26" viewBox="0 0 25 26" fill="none" xmlns="http://www.w3.org/2000/svg">
<path d="M12.4823 0.200576C12.4273 0.201768 12.3725 0.206954 12.3182 0.216093H7.96007C6.71946 0.216093 5.69011 1.24545 5.69011 2.48606V5.89101H2.28516C1.04455 5.89101 0.0151938 6.92036 0.0151938 8.16097V12.5103C-0.00506459 12.6328 -0.00506459 12.7579 0.0151938 12.8805V18.1852C-0.00506459 18.3077 -0.00506459 18.4328 0.0151938 18.5554V22.9157C0.0151938 24.1564 1.04455 25.1857 2.28516 25.1857H6.63445C6.75701 25.206 6.88208 25.206 7.00465 25.1857H12.3094C12.4319 25.206 12.557 25.206 12.6796 25.1857H17.0399C18.2805 25.1857 19.3099 24.1564 19.3099 22.9157V19.5108H22.7148C23.9554 19.5108 24.9848 18.4814 24.9848 17.2408V12.8915C25.0051 12.769 25.0051 12.6439 24.9848 12.5213V7.21663C25.0051 7.09406 25.0051 6.969 24.9848 6.84643V2.48606C24.9848 1.24545 23.9554 0.216093 22.7148 0.216093H18.35C18.2863 0.205441 18.2218 0.20025 18.1572 0.200576C18.1022 0.201768 18.0474 0.206954 17.9931 0.216093H12.6751C12.6114 0.205441 12.5469 0.20025 12.4823 0.200576ZM7.96007 2.48606H11.365V5.89101H7.96007V2.48606ZM13.635 2.48606H17.0399V5.89101H13.635V2.48606ZM19.3099 2.48606H22.7148V5.89101H19.3099V2.48606ZM2.28516 8.16097H5.69011V11.5659H2.28516V8.16097ZM7.96007 8.16097H11.365V11.5659H7.96007V8.16097ZM13.635 8.16097H17.0399V11.5659H13.635V8.16097ZM19.3099 8.16097H22.7148V11.5659H19.3099V8.16097ZM2.28516 13.8359H5.69011V17.2408H2.28516V13.8359ZM7.96007 13.8359H11.365V17.2408H7.96007V13.8359ZM13.635 13.8359H17.0399V17.2408H13.635V13.8359ZM19.3099 13.8359H22.7148V17.2408H19.3099V13.8359ZM2.28516 19.5108H5.69011V22.9157H2.28516V19.5108ZM7.96007 19.5108H11.365V22.9157H7.96007V19.5108ZM13.635 19.5108H17.0399V22.9157H13.635V19.5108Z" fill="#49C3A7"/>
</svg>
