<svg width="32" height="36" viewBox="0 0 32 36" fill="none" xmlns="http://www.w3.org/2000/svg">
<path d="M21.3937 0.507708C21.2611 0.524114 21.1392 0.565129 21.0119 0.61708L3.76799 7.83565C3.33318 8.01611 3.02298 8.40712 2.94079 8.88562L0.162256 25.1821C0.0853689 25.6332 0.228537 26.0844 0.54404 26.4071L9.02813 35.0912C9.58224 35.66 10.5049 35.6326 11.0219 35.0256L31.0231 11.5324C31.4951 10.9801 31.4632 10.1243 30.9595 9.60748L22.4966 0.923323C22.3031 0.723719 22.0565 0.584269 21.7967 0.529583C21.6668 0.50224 21.5263 0.491302 21.3937 0.507708ZM22.0512 2.43266L24.2146 4.64198C23.7533 5.67555 23.7798 6.59154 23.4511 7.02629C23.1833 7.38175 22.5602 7.6169 21.8603 8.09814C20.4816 9.04421 19.8559 10.4825 18.9333 11.2262C17.9073 12.0547 16.176 12.2953 14.8185 13.5668C13.6838 14.6304 13.2463 15.9647 12.8248 17.1542C12.4032 18.3436 12.0135 19.369 11.1491 20.1291C10.5791 20.6295 9.47619 21.0369 8.58271 21.7478C7.44797 22.6529 6.93362 23.9845 6.56774 25.1165C6.3848 25.6825 6.23368 26.2129 6.10112 26.6039C5.96855 26.9949 5.82008 27.2438 5.82538 27.2383C5.52844 27.5062 4.86827 27.6758 4.27704 28.2664L2.00754 25.9477L22.0512 2.43266ZM20.2059 2.45453L1.7106 24.1977L4.27704 9.12624L20.2059 2.45453ZM25.2964 5.75758L27.0144 7.52941C25.0021 8.77078 23.8673 10.1981 23.0693 11.5106C22.1573 13.0117 21.6429 14.2695 20.5241 15.2511C20.0574 15.6585 18.8803 16.5417 17.7455 17.4385C16.6108 18.3354 15.5503 19.1639 14.9246 19.976C14.214 20.9002 13.8137 22.1005 13.4611 23.1915C13.2834 23.7384 13.1297 24.2552 12.9944 24.6571C12.8592 25.059 12.6975 25.3899 12.7187 25.3571C11.5018 27.1563 10.6401 27.3969 9.53717 27.982C8.61983 28.4687 7.63356 29.2945 6.94953 31.0007L5.25271 29.2507C5.547 29.0129 6.11968 28.8269 6.71621 28.2883C7.1033 27.941 7.23852 27.5227 7.39494 27.0633C7.55137 26.6039 7.67067 26.0789 7.84036 25.554C8.17972 24.5067 8.6596 23.4567 9.43112 22.8415C10.0436 22.3521 11.1412 21.972 12.0188 21.2009C13.188 20.1728 13.6732 18.8303 14.0974 17.6354C14.5216 16.4405 14.8875 15.3851 15.7306 14.5949C16.6718 13.7144 18.3394 13.4656 19.7605 12.3199C21.0384 11.2891 21.6747 9.90825 22.6239 9.25749C23.1064 8.92664 23.931 8.67782 24.5328 7.8794C25.0843 7.1466 25.1744 6.35639 25.2964 5.75758ZM13.7156 6.10757C13.3418 6.10757 13.0369 6.42201 13.0369 6.80755C13.0369 7.19309 13.3418 7.50753 13.7156 7.50753C14.0894 7.50753 14.3943 7.19309 14.3943 6.80755C14.3943 6.42201 14.0894 6.10757 13.7156 6.10757ZM9.64322 8.20751C9.26939 8.20751 8.9645 8.52196 8.9645 8.9075C8.9645 9.29303 9.26939 9.60748 9.64322 9.60748C10.0171 9.60748 10.322 9.29303 10.322 8.9075C10.322 8.52196 10.0171 8.20751 9.64322 8.20751ZM28.5203 9.06062L30.005 10.5918L10.0038 34.1069C9.99319 34.1178 9.99319 34.1178 9.98259 34.1069L8.54029 32.6194C9.08646 30.5468 9.54513 30.3527 10.4704 29.8632C11.4063 29.3683 12.9335 28.6984 14.3943 26.5383C14.6621 26.1418 14.7734 25.8055 14.9246 25.3571C15.0757 24.9087 15.2242 24.3891 15.3912 23.8696C15.7279 22.8306 16.168 21.7396 16.5153 21.2884C16.7752 20.9521 17.8887 19.976 18.9969 19.101C20.1052 18.226 21.2187 17.392 21.8391 16.8479C23.3503 15.5245 23.9946 13.966 24.8085 12.6262C25.5801 11.3547 26.4894 10.1844 28.5203 9.06062ZM6.24959 10.3075C5.87576 10.3075 5.57086 10.6219 5.57086 11.0074C5.57086 11.393 5.87576 11.7074 6.24959 11.7074C6.62342 11.7074 6.92832 11.393 6.92832 11.0074C6.92832 10.6219 6.62342 10.3075 6.24959 10.3075ZM8.9645 11.7074C8.59067 11.7074 8.28577 12.0219 8.28577 12.4074C8.28577 12.7929 8.59067 13.1074 8.9645 13.1074C9.33833 13.1074 9.64322 12.7929 9.64322 12.4074C9.64322 12.0219 9.33833 11.7074 8.9645 11.7074ZM4.89213 15.9073C4.5183 15.9073 4.21341 16.2218 4.21341 16.6073C4.21341 16.9928 4.5183 17.3073 4.89213 17.3073C5.26596 17.3073 5.57086 16.9928 5.57086 16.6073C5.57086 16.2218 5.26596 15.9073 4.89213 15.9073Z" fill="#C2C9D1"/>
<path d="M21.3937 0.507708C21.2611 0.524114 21.1392 0.565129 21.0119 0.61708L3.76799 7.83565C3.33318 8.01611 3.02298 8.40712 2.94079 8.88562L0.162256 25.1821C0.0853689 25.6332 0.228537 26.0844 0.54404 26.4071L9.02813 35.0912C9.58224 35.66 10.5049 35.6326 11.0219 35.0256L31.0231 11.5324C31.4951 10.9801 31.4632 10.1243 30.9595 9.60748L22.4966 0.923323C22.3031 0.723719 22.0565 0.584269 21.7967 0.529583C21.6668 0.50224 21.5263 0.491302 21.3937 0.507708ZM22.0512 2.43266L24.2146 4.64198C23.7533 5.67555 23.7798 6.59154 23.4511 7.02629C23.1833 7.38175 22.5602 7.6169 21.8603 8.09814C20.4816 9.04421 19.8559 10.4825 18.9333 11.2262C17.9073 12.0547 16.176 12.2953 14.8185 13.5668C13.6838 14.6304 13.2463 15.9647 12.8248 17.1542C12.4032 18.3436 12.0135 19.369 11.1491 20.1291C10.5791 20.6295 9.47619 21.0369 8.58271 21.7478C7.44797 22.6529 6.93362 23.9845 6.56774 25.1165C6.3848 25.6825 6.23368 26.2129 6.10112 26.6039C5.96855 26.9949 5.82008 27.2438 5.82538 27.2383C5.52844 27.5062 4.86827 27.6758 4.27704 28.2664L2.00754 25.9477L22.0512 2.43266ZM20.2059 2.45453L1.7106 24.1977L4.27704 9.12624L20.2059 2.45453ZM25.2964 5.75758L27.0144 7.52941C25.0021 8.77078 23.8673 10.1981 23.0693 11.5106C22.1573 13.0117 21.6429 14.2695 20.5241 15.2511C20.0574 15.6585 18.8803 16.5417 17.7455 17.4385C16.6108 18.3354 15.5503 19.1639 14.9246 19.976C14.214 20.9002 13.8137 22.1005 13.4611 23.1915C13.2834 23.7384 13.1297 24.2552 12.9944 24.6571C12.8592 25.059 12.6975 25.3899 12.7187 25.3571C11.5018 27.1563 10.6401 27.3969 9.53717 27.982C8.61983 28.4687 7.63356 29.2945 6.94953 31.0007L5.25271 29.2507C5.547 29.0129 6.11968 28.8269 6.71621 28.2883C7.1033 27.941 7.23852 27.5227 7.39494 27.0633C7.55137 26.6039 7.67067 26.0789 7.84036 25.554C8.17972 24.5067 8.6596 23.4567 9.43112 22.8415C10.0436 22.3521 11.1412 21.972 12.0188 21.2009C13.188 20.1728 13.6732 18.8303 14.0974 17.6354C14.5216 16.4405 14.8875 15.3851 15.7306 14.5949C16.6718 13.7144 18.3394 13.4656 19.7605 12.3199C21.0384 11.2891 21.6747 9.90825 22.6239 9.25749C23.1064 8.92664 23.931 8.67782 24.5328 7.8794C25.0843 7.1466 25.1744 6.35639 25.2964 5.75758ZM13.7156 6.10757C13.3418 6.10757 13.0369 6.42201 13.0369 6.80755C13.0369 7.19309 13.3418 7.50753 13.7156 7.50753C14.0894 7.50753 14.3943 7.19309 14.3943 6.80755C14.3943 6.42201 14.0894 6.10757 13.7156 6.10757ZM9.64322 8.20751C9.26939 8.20751 8.9645 8.52196 8.9645 8.9075C8.9645 9.29303 9.26939 9.60748 9.64322 9.60748C10.0171 9.60748 10.322 9.29303 10.322 8.9075C10.322 8.52196 10.0171 8.20751 9.64322 8.20751ZM28.5203 9.06062L30.005 10.5918L10.0038 34.1069C9.99319 34.1178 9.99319 34.1178 9.98259 34.1069L8.54029 32.6194C9.08646 30.5468 9.54513 30.3527 10.4704 29.8632C11.4063 29.3683 12.9335 28.6984 14.3943 26.5383C14.6621 26.1418 14.7734 25.8055 14.9246 25.3571C15.0757 24.9087 15.2242 24.3891 15.3912 23.8696C15.7279 22.8306 16.168 21.7396 16.5153 21.2884C16.7752 20.9521 17.8887 19.976 18.9969 19.101C20.1052 18.226 21.2187 17.392 21.8391 16.8479C23.3503 15.5245 23.9946 13.966 24.8085 12.6262C25.5801 11.3547 26.4894 10.1844 28.5203 9.06062ZM6.24959 10.3075C5.87576 10.3075 5.57086 10.6219 5.57086 11.0074C5.57086 11.393 5.87576 11.7074 6.24959 11.7074C6.62342 11.7074 6.92832 11.393 6.92832 11.0074C6.92832 10.6219 6.62342 10.3075 6.24959 10.3075ZM8.9645 11.7074C8.59067 11.7074 8.28577 12.0219 8.28577 12.4074C8.28577 12.7929 8.59067 13.1074 8.9645 13.1074C9.33833 13.1074 9.64322 12.7929 9.64322 12.4074C9.64322 12.0219 9.33833 11.7074 8.9645 11.7074ZM4.89213 15.9073C4.5183 15.9073 4.21341 16.2218 4.21341 16.6073C4.21341 16.9928 4.5183 17.3073 4.89213 17.3073C5.26596 17.3073 5.57086 16.9928 5.57086 16.6073C5.57086 16.2218 5.26596 15.9073 4.89213 15.9073Z" fill="black" fill-opacity="0.25"/>
</svg>
