<svg width="31" height="30" viewBox="0 0 31 30" fill="none" xmlns="http://www.w3.org/2000/svg">
<path d="M12.4575 0C6.04909 0 0.841797 5.2073 0.841797 11.6157C0.841797 18.024 6.04909 23.2313 12.4575 23.2313C14.993 23.2313 17.3365 22.4146 19.2475 21.032L28.2368 30L30.1585 28.0783L21.276 19.1744C23.0215 17.1406 24.0731 14.5009 24.0731 11.6157C24.0731 5.2073 18.8658 0 12.4575 0ZM12.4575 1.36655C18.1265 1.36655 22.7066 5.94662 22.7066 11.6157C22.7066 17.2847 18.1265 21.8648 12.4575 21.8648C6.78842 21.8648 2.20834 17.2847 2.20834 11.6157C2.20834 5.94662 6.78842 1.36655 12.4575 1.36655Z" fill="#C2C9D1"/>
<path d="M12.4575 0C6.04909 0 0.841797 5.2073 0.841797 11.6157C0.841797 18.024 6.04909 23.2313 12.4575 23.2313C14.993 23.2313 17.3365 22.4146 19.2475 21.032L28.2368 30L30.1585 28.0783L21.276 19.1744C23.0215 17.1406 24.0731 14.5009 24.0731 11.6157C24.0731 5.2073 18.8658 0 12.4575 0ZM12.4575 1.36655C18.1265 1.36655 22.7066 5.94662 22.7066 11.6157C22.7066 17.2847 18.1265 21.8648 12.4575 21.8648C6.78842 21.8648 2.20834 17.2847 2.20834 11.6157C2.20834 5.94662 6.78842 1.36655 12.4575 1.36655Z" fill="white" fill-opacity="0.9"/>
</svg>
