<svg width="60" height="50" viewBox="0 0 60 50" fill="none" xmlns="http://www.w3.org/2000/svg">
<path d="M7.20014 0V2.39999H3.60015C3.56265 2.39999 3.52515 2.39999 3.48765 2.39999C3.45015 2.39999 3.41265 2.39999 3.37515 2.39999C2.80327 2.50781 2.39078 3.01405 2.40015 3.59999V7.19998C2.40015 7.86092 2.93921 8.39998 3.60015 8.39998H7.20014V10.8H3.60015C3.56265 10.8 3.52515 10.8 3.48765 10.8C3.45015 10.8 3.41265 10.8 3.37515 10.8C2.80327 10.9078 2.39078 11.414 2.40015 12V15.6C2.40015 16.2609 2.93921 16.8 3.60015 16.8H7.20014V19.1999H3.60015C3.56265 19.1999 3.52515 19.1999 3.48765 19.1999C3.45015 19.1999 3.41265 19.1999 3.37515 19.1999C2.80327 19.3078 2.39078 19.814 2.40015 20.3999V23.9999C2.40015 24.6609 2.93921 25.1999 3.60015 25.1999H7.20014V27.5999H1.20015C1.16265 27.5999 1.12515 27.5999 1.08765 27.5999C1.05015 27.5999 1.01265 27.5999 0.975154 27.5999C0.403281 27.7077 -0.00921836 28.214 0.000156611 28.7999V34.7999C0.000156611 35.4608 0.539218 35.9999 1.20015 35.9999H2.40015V47.9999C2.40015 48.6608 2.93921 49.1999 3.60015 49.1999H7.20014C7.86107 49.1999 8.40014 48.6608 8.40014 47.9999V35.9999H9.60013V44.3999C9.60013 45.0608 10.1392 45.5999 10.8001 45.5999H14.4001C15.0611 45.5999 15.6001 45.0608 15.6001 44.3999V35.9999H44.4V44.3999C44.4 45.0608 44.9391 45.5999 45.6 45.5999H49.2C49.861 45.5999 50.4 45.0608 50.4 44.3999V35.9999H51.6V47.9999C51.6 48.6608 52.1391 49.1999 52.8 49.1999H56.4C57.0609 49.1999 57.6 48.6608 57.6 47.9999V35.9999H58.8C59.4609 35.9999 60 35.4608 60 34.7999V28.7999C60 28.139 59.4609 27.5999 58.8 27.5999H52.8V25.1999H56.4C57.0609 25.1999 57.6 24.6609 57.6 23.9999V20.3999C57.6 19.739 57.0609 19.1999 56.4 19.1999H52.8V16.8H56.4C57.0609 16.8 57.6 16.2609 57.6 15.6V12C57.6 11.339 57.0609 10.8 56.4 10.8H52.8V8.39998H56.4C57.0609 8.39998 57.6 7.86092 57.6 7.19998V3.59999C57.6 2.93905 57.0609 2.39999 56.4 2.39999H52.8V0H49.2V2.39999H10.8001V0H7.20014ZM4.80014 4.79999H55.2V5.99998H4.80014V4.79999ZM10.8001 8.39998H49.2V10.8H10.8001V8.39998ZM4.80014 13.2H55.2V14.4H4.80014V13.2ZM10.8001 16.8H49.2V19.1999H10.8001V16.8ZM4.80014 21.5999H55.2V22.7999H4.80014V21.5999ZM10.8001 25.1999H49.2V27.5999H10.8001V25.1999ZM2.40015 29.9999H57.6V33.5999H2.40015V29.9999ZM4.80014 35.9999H6.00014V46.7999H4.80014V35.9999ZM12.0001 35.9999H13.2001V43.1999H12.0001V35.9999ZM46.8 35.9999H48V43.1999H46.8V35.9999ZM54 35.9999H55.2V46.7999H54V35.9999Z" fill="#C2C9D1"/>
<path d="M7.20014 0V2.39999H3.60015C3.56265 2.39999 3.52515 2.39999 3.48765 2.39999C3.45015 2.39999 3.41265 2.39999 3.37515 2.39999C2.80327 2.50781 2.39078 3.01405 2.40015 3.59999V7.19998C2.40015 7.86092 2.93921 8.39998 3.60015 8.39998H7.20014V10.8H3.60015C3.56265 10.8 3.52515 10.8 3.48765 10.8C3.45015 10.8 3.41265 10.8 3.37515 10.8C2.80327 10.9078 2.39078 11.414 2.40015 12V15.6C2.40015 16.2609 2.93921 16.8 3.60015 16.8H7.20014V19.1999H3.60015C3.56265 19.1999 3.52515 19.1999 3.48765 19.1999C3.45015 19.1999 3.41265 19.1999 3.37515 19.1999C2.80327 19.3078 2.39078 19.814 2.40015 20.3999V23.9999C2.40015 24.6609 2.93921 25.1999 3.60015 25.1999H7.20014V27.5999H1.20015C1.16265 27.5999 1.12515 27.5999 1.08765 27.5999C1.05015 27.5999 1.01265 27.5999 0.975154 27.5999C0.403281 27.7077 -0.00921836 28.214 0.000156611 28.7999V34.7999C0.000156611 35.4608 0.539218 35.9999 1.20015 35.9999H2.40015V47.9999C2.40015 48.6608 2.93921 49.1999 3.60015 49.1999H7.20014C7.86107 49.1999 8.40014 48.6608 8.40014 47.9999V35.9999H9.60013V44.3999C9.60013 45.0608 10.1392 45.5999 10.8001 45.5999H14.4001C15.0611 45.5999 15.6001 45.0608 15.6001 44.3999V35.9999H44.4V44.3999C44.4 45.0608 44.9391 45.5999 45.6 45.5999H49.2C49.861 45.5999 50.4 45.0608 50.4 44.3999V35.9999H51.6V47.9999C51.6 48.6608 52.1391 49.1999 52.8 49.1999H56.4C57.0609 49.1999 57.6 48.6608 57.6 47.9999V35.9999H58.8C59.4609 35.9999 60 35.4608 60 34.7999V28.7999C60 28.139 59.4609 27.5999 58.8 27.5999H52.8V25.1999H56.4C57.0609 25.1999 57.6 24.6609 57.6 23.9999V20.3999C57.6 19.739 57.0609 19.1999 56.4 19.1999H52.8V16.8H56.4C57.0609 16.8 57.6 16.2609 57.6 15.6V12C57.6 11.339 57.0609 10.8 56.4 10.8H52.8V8.39998H56.4C57.0609 8.39998 57.6 7.86092 57.6 7.19998V3.59999C57.6 2.93905 57.0609 2.39999 56.4 2.39999H52.8V0H49.2V2.39999H10.8001V0H7.20014ZM4.80014 4.79999H55.2V5.99998H4.80014V4.79999ZM10.8001 8.39998H49.2V10.8H10.8001V8.39998ZM4.80014 13.2H55.2V14.4H4.80014V13.2ZM10.8001 16.8H49.2V19.1999H10.8001V16.8ZM4.80014 21.5999H55.2V22.7999H4.80014V21.5999ZM10.8001 25.1999H49.2V27.5999H10.8001V25.1999ZM2.40015 29.9999H57.6V33.5999H2.40015V29.9999ZM4.80014 35.9999H6.00014V46.7999H4.80014V35.9999ZM12.0001 35.9999H13.2001V43.1999H12.0001V35.9999ZM46.8 35.9999H48V43.1999H46.8V35.9999ZM54 35.9999H55.2V46.7999H54V35.9999Z" fill="white" fill-opacity="0.9"/>
</svg>
