<svg width="25" height="36" viewBox="0 0 25 36" fill="none" xmlns="http://www.w3.org/2000/svg">
<path d="M10.6502 0.503224C10.6195 0.508801 10.5889 0.517165 10.561 0.525529C10.2292 0.600809 9.995 0.899141 10.0034 1.23929C10.0034 3.41962 9.1725 4.07762 8.10743 5.03117C7.04236 5.98471 5.74308 7.24217 5.74308 9.80447C5.74029 10.061 5.87412 10.3008 6.09717 10.4318C6.32023 10.5601 6.59346 10.5601 6.81652 10.4318C7.03957 10.3008 7.1734 10.061 7.17061 9.80447C7.17061 7.67433 7.9959 7.03863 9.06655 6.07951C10.1372 5.12039 11.4309 3.84342 11.4309 1.23929C11.4393 1.03297 11.3556 0.835014 11.2078 0.695606C11.0573 0.553411 10.8537 0.483707 10.6502 0.503224ZM14.219 4.07205C14.1884 4.07762 14.1577 4.08599 14.1298 4.09435C13.798 4.16963 13.5638 4.46796 13.5722 4.80812C13.5722 6.20219 13.101 6.53956 12.39 7.17246C11.679 7.80537 10.7171 8.74219 10.7171 10.5182C10.7143 10.7747 10.8482 11.0145 11.0712 11.1456C11.2943 11.2738 11.5675 11.2738 11.7906 11.1456C12.0136 11.0145 12.1474 10.7747 12.1447 10.5182C12.1447 9.17993 12.6075 8.8816 13.3268 8.24311C14.0462 7.60463 14.9997 6.62599 14.9997 4.80812C15.0081 4.6018 14.9244 4.40384 14.7767 4.26443C14.6261 4.12223 14.4226 4.05253 14.219 4.07205ZM0.590591 12.6595C0.38148 12.6986 0.200251 12.8268 0.0970896 13.0136C-0.00607151 13.1976 -0.0200126 13.4207 0.0552675 13.6187C0.400997 14.614 2.36664 20.6002 3.2449 33.5818C3.31182 34.5799 4.0925 35.5 5.18545 35.5H14.8213C15.9142 35.5 16.6949 34.5799 16.7618 33.5818C16.9124 31.3735 17.0992 29.4386 17.2971 27.6263C19.2488 27.4367 21.0807 27.0268 22.5166 26.1764C23.9692 25.3149 24.9924 23.8818 24.9924 21.9831C24.9924 20.8344 24.6244 19.6912 23.721 18.8827C22.8177 18.0741 21.4654 17.6559 19.6169 17.6559H18.8585C19.3687 15.3668 19.8065 14.0341 19.9515 13.6187C20.0323 13.4012 19.9989 13.1558 19.8678 12.9662C19.734 12.7738 19.5165 12.6595 19.2823 12.6595H0.724422C0.702117 12.6595 0.679812 12.6595 0.657506 12.6595C0.635201 12.6595 0.612896 12.6595 0.590591 12.6595ZM1.63893 14.0871H18.3678C17.7879 15.8798 16.1456 21.4784 15.3343 33.4702C15.312 33.8048 15.0806 34.0725 14.8213 34.0725H5.18545C4.92615 34.0725 4.69474 33.8048 4.67243 33.4702C3.86108 21.4784 2.21887 15.8798 1.63893 14.0871ZM18.5462 19.0834H19.6169C21.2479 19.0834 22.2266 19.4542 22.7842 19.9533C23.3418 20.4524 23.5649 21.1132 23.5649 21.9831C23.5649 23.4134 22.9515 24.2694 21.8028 24.9497C20.7349 25.5826 19.1875 25.9618 17.4756 26.1541C17.8241 23.3019 18.181 20.9208 18.5462 19.0834Z" fill="#C2C9D1"/>
<path d="M10.6502 0.503224C10.6195 0.508801 10.5889 0.517165 10.561 0.525529C10.2292 0.600809 9.995 0.899141 10.0034 1.23929C10.0034 3.41962 9.1725 4.07762 8.10743 5.03117C7.04236 5.98471 5.74308 7.24217 5.74308 9.80447C5.74029 10.061 5.87412 10.3008 6.09717 10.4318C6.32023 10.5601 6.59346 10.5601 6.81652 10.4318C7.03957 10.3008 7.1734 10.061 7.17061 9.80447C7.17061 7.67433 7.9959 7.03863 9.06655 6.07951C10.1372 5.12039 11.4309 3.84342 11.4309 1.23929C11.4393 1.03297 11.3556 0.835014 11.2078 0.695606C11.0573 0.553411 10.8537 0.483707 10.6502 0.503224ZM14.219 4.07205C14.1884 4.07762 14.1577 4.08599 14.1298 4.09435C13.798 4.16963 13.5638 4.46796 13.5722 4.80812C13.5722 6.20219 13.101 6.53956 12.39 7.17246C11.679 7.80537 10.7171 8.74219 10.7171 10.5182C10.7143 10.7747 10.8482 11.0145 11.0712 11.1456C11.2943 11.2738 11.5675 11.2738 11.7906 11.1456C12.0136 11.0145 12.1474 10.7747 12.1447 10.5182C12.1447 9.17993 12.6075 8.8816 13.3268 8.24311C14.0462 7.60463 14.9997 6.62599 14.9997 4.80812C15.0081 4.6018 14.9244 4.40384 14.7767 4.26443C14.6261 4.12223 14.4226 4.05253 14.219 4.07205ZM0.590591 12.6595C0.38148 12.6986 0.200251 12.8268 0.0970896 13.0136C-0.00607151 13.1976 -0.0200126 13.4207 0.0552675 13.6187C0.400997 14.614 2.36664 20.6002 3.2449 33.5818C3.31182 34.5799 4.0925 35.5 5.18545 35.5H14.8213C15.9142 35.5 16.6949 34.5799 16.7618 33.5818C16.9124 31.3735 17.0992 29.4386 17.2971 27.6263C19.2488 27.4367 21.0807 27.0268 22.5166 26.1764C23.9692 25.3149 24.9924 23.8818 24.9924 21.9831C24.9924 20.8344 24.6244 19.6912 23.721 18.8827C22.8177 18.0741 21.4654 17.6559 19.6169 17.6559H18.8585C19.3687 15.3668 19.8065 14.0341 19.9515 13.6187C20.0323 13.4012 19.9989 13.1558 19.8678 12.9662C19.734 12.7738 19.5165 12.6595 19.2823 12.6595H0.724422C0.702117 12.6595 0.679812 12.6595 0.657506 12.6595C0.635201 12.6595 0.612896 12.6595 0.590591 12.6595ZM1.63893 14.0871H18.3678C17.7879 15.8798 16.1456 21.4784 15.3343 33.4702C15.312 33.8048 15.0806 34.0725 14.8213 34.0725H5.18545C4.92615 34.0725 4.69474 33.8048 4.67243 33.4702C3.86108 21.4784 2.21887 15.8798 1.63893 14.0871ZM18.5462 19.0834H19.6169C21.2479 19.0834 22.2266 19.4542 22.7842 19.9533C23.3418 20.4524 23.5649 21.1132 23.5649 21.9831C23.5649 23.4134 22.9515 24.2694 21.8028 24.9497C20.7349 25.5826 19.1875 25.9618 17.4756 26.1541C17.8241 23.3019 18.181 20.9208 18.5462 19.0834Z" fill="black" fill-opacity="0.25"/>
</svg>
