<svg width="25" height="26" viewBox="0 0 25 26" fill="none" xmlns="http://www.w3.org/2000/svg">
<path d="M6.80735 0.20024C6.75237 0.201432 6.69755 0.206618 6.64331 0.215758H2.28516C1.04455 0.215758 0.0151937 1.24512 0.0151937 2.48572V6.83501C-0.00506458 6.95758 -0.00506458 7.08264 0.0151937 7.20521V22.9154C0.0151937 24.156 1.04455 25.1854 2.28516 25.1854H6.63445C6.75701 25.2056 6.88208 25.2056 7.00465 25.1854H12.3094C12.4319 25.2056 12.557 25.2056 12.6796 25.1854H17.9843C18.1068 25.2056 18.2319 25.2056 18.3545 25.1854H22.7148C23.9554 25.1854 24.9848 24.156 24.9848 22.9154V7.2163C25.0051 7.09373 25.0051 6.96866 24.9848 6.8461V2.48572C24.9848 1.24512 23.9554 0.215758 22.7148 0.215758H18.35C18.2863 0.205106 18.2218 0.199914 18.1572 0.20024C18.1022 0.201432 18.0474 0.206618 17.9931 0.215758H12.6751C12.6114 0.205106 12.5469 0.199914 12.4823 0.20024C12.4273 0.201432 12.3725 0.206618 12.3182 0.215758H7.00021C6.93648 0.205106 6.87196 0.199914 6.80735 0.20024ZM2.28516 2.48572H5.69011V5.89067H2.28516V2.48572ZM7.96007 2.48572H11.365V5.89067H7.96007V2.48572ZM13.635 2.48572H17.0399V5.89067H13.635V2.48572ZM19.3099 2.48572H22.7148V5.89067H19.3099V2.48572ZM2.28516 8.16064H5.69011V22.9154H2.28516V8.16064ZM7.96007 8.16064H11.365V22.9154H7.96007V8.16064ZM13.635 8.16064H17.0399V22.9154H13.635V8.16064ZM19.3099 8.16064H22.7148V22.9154H19.3099V8.16064Z" fill="#49C3A7"/>
</svg>
